<svg xmlns="http://www.w3.org/2000/svg" width="800" height="200" viewBox="0 0 800 200">
  <defs>
    <linearGradient id="bg" x1="0%" y1="0%" x2="100%" y2="100%">
      <stop offset="0%" style="stop-color:#1a1a2e;stop-opacity:1" />
      <stop offset="100%" style="stop-color:#2d2b55;stop-opacity:1" />
    </linearGradient>
    <linearGradient id="accent" x1="0%" y1="0%" x2="100%" y2="0%">
      <stop offset="0%" style="stop-color:#8b5cf6;stop-opacity:1" />
      <stop offset="100%" style="stop-color:#06b6d4;stop-opacity:1" />
    </linearGradient>
  </defs>
  <rect width="800" height="200" rx="12" fill="url(#bg)"/>
  <rect x="0" y="188" width="800" height="12" rx="0" fill="url(#accent)" opacity="0.8"/>
  <text x="400" y="95" font-size="48" font-weight="bold" fill="#ffffff" font-family="system-ui, -apple-system, sans-serif" text-anchor="middle">A2A-Kit</text>
  <text x="400" y="135" font-size="16" fill="#94a3b8" font-family="system-ui, -apple-system, sans-serif" text-anchor="middle">Agent-to-Agent Protocol Toolkit for Multi-Agent Communication</text>
  <circle cx="80" cy="55" r="5" fill="#8b5cf6" opacity="0.5"/>
  <circle cx="130" cy="55" r="5" fill="#06b6d4" opacity="0.5"/>
  <line x1="85" y1="55" x2="125" y2="55" stroke="#8b5cf6" stroke-width="1.5" opacity="0.4"/>
  <circle cx="105" cy="35" r="3" fill="#8b5cf6" opacity="0.4"/>
  <line x1="80" y1="55" x2="105" y2="35" stroke="#06b6d4" stroke-width="1" opacity="0.3"/>
  <line x1="130" y1="55" x2="105" y2="35" stroke="#8b5cf6" stroke-width="1" opacity="0.3"/>
  <circle cx="690" cy="55" r="5" fill="#06b6d4" opacity="0.5"/>
  <circle cx="740" cy="55" r="5" fill="#8b5cf6" opacity="0.5"/>
  <line x1="695" y1="55" x2="735" y2="55" stroke="#06b6d4" stroke-width="1.5" opacity="0.4"/>
  <circle cx="715" cy="35" r="3" fill="#06b6d4" opacity="0.4"/>
  <line x1="690" y1="55" x2="715" y2="35" stroke="#8b5cf6" stroke-width="1" opacity="0.3"/>
  <line x1="740" y1="55" x2="715" y2="35" stroke="#06b6d4" stroke-width="1" opacity="0.3"/>
</svg>
